<mxfile host="app.diagrams.net" agent="Mozilla/5.0 (Windows NT 10.0; Win64; x64) AppleWebKit/537.36 (KHTML, like Gecko) Chrome/128.0.0.0 Safari/537.36" version="24.7.8">
  <diagram name="‫עמוד-1‬" id="gDT18coDBRtf98s9c9KA">
    <mxGraphModel dx="880" dy="468" grid="1" gridSize="10" guides="1" tooltips="1" connect="1" arrows="1" fold="1" page="1" pageScale="1" pageWidth="827" pageHeight="1169" math="0" shadow="0">
      <root>
        <mxCell id="0" />
        <mxCell id="1" parent="0" />
        <mxCell id="ow1TeOn4jAKtZlsWJLnr-1" value="" style="edgeStyle=orthogonalEdgeStyle;rounded=0;orthogonalLoop=1;jettySize=auto;html=1;" edge="1" parent="1" source="ow1TeOn4jAKtZlsWJLnr-2" target="ow1TeOn4jAKtZlsWJLnr-5">
          <mxGeometry relative="1" as="geometry" />
        </mxCell>
        <mxCell id="ow1TeOn4jAKtZlsWJLnr-2" value="start" style="rounded=1;whiteSpace=wrap;html=1;" vertex="1" parent="1">
          <mxGeometry x="150" y="100" width="120" height="60" as="geometry" />
        </mxCell>
        <mxCell id="ow1TeOn4jAKtZlsWJLnr-3" value="end" style="rounded=1;whiteSpace=wrap;html=1;" vertex="1" parent="1">
          <mxGeometry x="145" y="1050" width="120" height="60" as="geometry" />
        </mxCell>
        <mxCell id="ow1TeOn4jAKtZlsWJLnr-15" value="" style="edgeStyle=orthogonalEdgeStyle;rounded=0;orthogonalLoop=1;jettySize=auto;html=1;" edge="1" parent="1" source="ow1TeOn4jAKtZlsWJLnr-5" target="ow1TeOn4jAKtZlsWJLnr-12">
          <mxGeometry relative="1" as="geometry" />
        </mxCell>
        <mxCell id="ow1TeOn4jAKtZlsWJLnr-5" value="x(int)=777&lt;div&gt;&lt;br/&gt;&lt;/div&gt;" style="shape=card;whiteSpace=wrap;html=1;" vertex="1" parent="1">
          <mxGeometry x="160" y="230" width="80" height="100" as="geometry" />
        </mxCell>
        <mxCell id="ow1TeOn4jAKtZlsWJLnr-16" value="" style="edgeStyle=orthogonalEdgeStyle;rounded=0;orthogonalLoop=1;jettySize=auto;html=1;" edge="1" parent="1" source="ow1TeOn4jAKtZlsWJLnr-12" target="ow1TeOn4jAKtZlsWJLnr-14">
          <mxGeometry relative="1" as="geometry" />
        </mxCell>
        <mxCell id="ow1TeOn4jAKtZlsWJLnr-12" value="y(int)=888" style="shape=card;whiteSpace=wrap;html=1;" vertex="1" parent="1">
          <mxGeometry x="160" y="390" width="80" height="90" as="geometry" />
        </mxCell>
        <mxCell id="ow1TeOn4jAKtZlsWJLnr-19" value="" style="edgeStyle=orthogonalEdgeStyle;rounded=0;orthogonalLoop=1;jettySize=auto;html=1;" edge="1" parent="1" source="ow1TeOn4jAKtZlsWJLnr-14" target="ow1TeOn4jAKtZlsWJLnr-17">
          <mxGeometry relative="1" as="geometry" />
        </mxCell>
        <mxCell id="ow1TeOn4jAKtZlsWJLnr-14" value="z(int)=999" style="shape=card;whiteSpace=wrap;html=1;" vertex="1" parent="1">
          <mxGeometry x="162.5" y="550" width="75" height="100" as="geometry" />
        </mxCell>
        <mxCell id="ow1TeOn4jAKtZlsWJLnr-20" value="" style="edgeStyle=orthogonalEdgeStyle;rounded=0;orthogonalLoop=1;jettySize=auto;html=1;" edge="1" parent="1" source="ow1TeOn4jAKtZlsWJLnr-17" target="ow1TeOn4jAKtZlsWJLnr-18">
          <mxGeometry relative="1" as="geometry" />
        </mxCell>
        <mxCell id="ow1TeOn4jAKtZlsWJLnr-17" value="result(int)=x*y+z" style="shape=card;whiteSpace=wrap;html=1;" vertex="1" parent="1">
          <mxGeometry x="155" y="710" width="90" height="100" as="geometry" />
        </mxCell>
        <mxCell id="ow1TeOn4jAKtZlsWJLnr-21" value="" style="edgeStyle=orthogonalEdgeStyle;rounded=0;orthogonalLoop=1;jettySize=auto;html=1;" edge="1" parent="1" source="ow1TeOn4jAKtZlsWJLnr-18" target="ow1TeOn4jAKtZlsWJLnr-3">
          <mxGeometry relative="1" as="geometry" />
        </mxCell>
        <mxCell id="ow1TeOn4jAKtZlsWJLnr-18" value="print(result)" style="shape=document;whiteSpace=wrap;html=1;boundedLbl=1;" vertex="1" parent="1">
          <mxGeometry x="140" y="880" width="120" height="80" as="geometry" />
        </mxCell>
      </root>
    </mxGraphModel>
  </diagram>
</mxfile>
